<svg width="25" height="26" viewBox="0 0 25 26" fill="none" xmlns="http://www.w3.org/2000/svg">
<path d="M12.5 21.1797C7.8 21.1797 4 17.3797 4 12.6797C4 7.97969 7.8 4.17969 12.5 4.17969C17.2 4.17969 21 7.97969 21 12.6797C21 17.3797 17.2 21.1797 12.5 21.1797ZM12.5 5.17969C8.35 5.17969 5 8.52969 5 12.6797C5 16.8297 8.35 20.1797 12.5 20.1797C16.65 20.1797 20 16.8297 20 12.6797C20 8.52969 16.65 5.17969 12.5 5.17969Z" fill="#F47A1F"/>
<path d="M11.5004 16.3781L7.15039 12.0281L7.85039 11.3281L11.5004 14.9781L17.1504 9.32812L17.8504 10.0281L11.5004 16.3781Z" fill="#F47A1F"/>
</svg>
