<svg xmlns="http://www.w3.org/2000/svg" xmlns:xlink="http://www.w3.org/1999/xlink" width="512" zoomAndPan="magnify" viewBox="0 0 384 383.999986" height="512" preserveAspectRatio="xMidYMid meet" version="1.0"><defs><clipPath id="f6aba76973"><path d="M 24.394531 60 L 356 60 L 356 324 L 24.394531 324 Z M 24.394531 60 " clip-rule="nonzero"/></clipPath><clipPath id="ea34f9521f"><path d="M 73.667969 217.359375 C 72.214844 217.359375 71.035156 216.183594 71.035156 214.730469 C 71.035156 213.277344 72.214844 212.097656 73.667969 212.097656 L 126.140625 212.097656 C 127.59375 212.097656 128.769531 213.277344 128.769531 214.730469 C 128.769531 216.183594 127.59375 217.359375 126.140625 217.359375 Z M 73.667969 70.570312 C 72.214844 70.570312 71.035156 71.75 71.035156 73.203125 C 71.035156 74.65625 72.214844 75.832031 73.667969 75.832031 L 141.945312 75.832031 C 143.398438 75.832031 144.578125 74.65625 144.578125 73.203125 C 144.578125 71.75 143.398438 70.570312 141.945312 70.570312 Z M 27.023438 282.882812 L 160.375 282.882812 C 155.085938 276.164062 150.433594 268.671875 146.550781 260.425781 C 145.367188 257.910156 144.292969 255.34375 143.277344 252.753906 L 27.023438 252.753906 C 25.570312 252.753906 24.394531 251.574219 24.394531 250.121094 C 24.394531 248.667969 25.570312 247.488281 27.023438 247.488281 L 141.332031 247.488281 C 134.304688 227.074219 132.183594 204.609375 135.167969 181.96875 L 27.023438 181.96875 C 25.570312 181.96875 24.394531 180.792969 24.394531 179.339844 C 24.394531 177.886719 25.570312 176.707031 27.023438 176.707031 L 135.96875 176.707031 C 136.742188 172.082031 137.703125 167.457031 138.898438 162.84375 C 140.351562 157.25 142.113281 151.832031 144.105469 146.578125 L 131.96875 146.578125 C 130.511719 146.578125 129.335938 145.398438 129.335938 143.945312 C 129.335938 142.492188 130.511719 141.3125 131.96875 141.3125 L 146.214844 141.3125 C 150.824219 130.375 156.554688 120.265625 163.199219 111.183594 L 27.023438 111.183594 C 25.570312 111.183594 24.394531 110.007812 24.394531 108.554688 C 24.394531 107.101562 25.570312 105.921875 27.023438 105.921875 L 167.226562 105.921875 C 177.148438 93.609375 188.789062 83.429688 201.457031 75.832031 L 172.675781 75.832031 C 171.21875 75.832031 170.042969 74.652344 170.042969 73.199219 C 170.042969 71.746094 171.21875 70.570312 172.675781 70.570312 L 211.265625 70.570312 C 232.191406 60.617188 255.28125 57.546875 277.816406 63.386719 C 306.21875 70.746094 329.449219 90.921875 343.234375 120.195312 C 356.9375 149.300781 359.652344 183.957031 350.882812 217.773438 C 335.121094 278.546875 286.058594 320.1875 235.152344 320.1875 C 227.425781 320.1875 219.664062 319.230469 211.96875 317.234375 C 193.71875 312.507812 177.625 302.464844 164.785156 288.144531 L 27.023438 288.144531 C 25.570312 288.144531 24.394531 286.964844 24.394531 285.511719 C 24.394531 284.058594 25.570312 282.882812 27.023438 282.882812 Z M 151.925781 141.316406 L 170.425781 141.316406 C 176.15625 129.890625 183.320312 119.746094 191.484375 111.1875 L 169.757812 111.1875 C 162.792969 120.171875 156.769531 130.289062 151.925781 141.316406 Z M 235.535156 108.558594 C 235.535156 110.007812 234.359375 111.1875 232.90625 111.1875 L 198.867188 111.1875 C 190.152344 119.507812 182.46875 129.683594 176.332031 141.316406 L 209.265625 141.316406 C 210.722656 141.316406 211.898438 142.496094 211.898438 143.949219 C 211.898438 145.402344 210.722656 146.578125 209.265625 146.578125 L 173.707031 146.578125 C 170.304688 153.816406 167.476562 161.542969 165.363281 169.703125 C 164.757812 172.035156 164.242188 174.371094 163.765625 176.707031 L 198.0625 176.707031 C 199.515625 176.707031 200.691406 177.886719 200.691406 179.339844 C 200.691406 180.792969 199.515625 181.96875 198.0625 181.96875 L 162.800781 181.96875 C 161.140625 192.140625 160.695312 202.265625 161.445312 212.097656 L 196.765625 212.097656 C 198.222656 212.097656 199.398438 213.277344 199.398438 214.730469 C 199.398438 216.183594 198.222656 217.359375 196.765625 217.359375 L 161.960938 217.359375 C 163.242188 227.925781 165.917969 238.085938 170 247.488281 L 178.613281 247.488281 C 180.066406 247.488281 181.242188 248.667969 181.242188 250.121094 C 181.242188 251.574219 180.066406 252.753906 178.613281 252.753906 L 172.480469 252.753906 C 182.757812 273.019531 198.941406 286.855469 218.53125 291.925781 C 262.390625 303.300781 309.890625 266.945312 324.421875 210.917969 C 331.492188 183.664062 329.789062 155.902344 319.625 132.753906 C 309.558594 109.816406 292.378906 94.167969 271.25 88.695312 C 265.832031 87.289062 260.355469 86.613281 254.894531 86.613281 C 237.289062 86.613281 219.828125 93.652344 204.816406 105.921875 L 232.902344 105.921875 C 234.359375 105.925781 235.535156 107.105469 235.535156 108.558594 Z M 141.292969 176.710938 L 158.398438 176.710938 C 158.945312 173.933594 159.550781 171.15625 160.269531 168.386719 C 162.253906 160.742188 164.839844 153.460938 167.921875 146.582031 L 149.734375 146.582031 C 147.503906 152.234375 145.566406 158.09375 143.992188 164.171875 C 142.910156 168.339844 142.015625 172.523438 141.292969 176.710938 Z M 146.882812 247.488281 L 164.3125 247.488281 C 160.441406 238.023438 157.882812 227.882812 156.664062 217.359375 L 149.371094 217.359375 C 147.914062 217.359375 146.738281 216.183594 146.738281 214.730469 C 146.738281 213.277344 147.914062 212.097656 149.371094 212.097656 L 156.167969 212.097656 C 155.449219 202.25 155.882812 192.128906 157.472656 181.96875 L 140.488281 181.96875 C 137.386719 204.667969 139.566406 227.195312 146.882812 247.488281 Z M 151.308594 258.183594 C 164.414062 286.015625 186.425781 305.179688 213.289062 312.140625 C 268.917969 326.558594 328.363281 283.632812 345.789062 216.457031 C 354.253906 183.828125 351.65625 150.4375 338.472656 122.441406 C 325.367188 94.605469 303.355469 75.445312 276.496094 68.484375 C 269.226562 66.601562 261.894531 65.695312 254.601562 65.695312 C 244.664062 65.695312 234.800781 67.402344 225.257812 70.570312 L 233.851562 70.570312 C 235.304688 70.570312 236.480469 71.75 236.480469 73.203125 C 236.480469 74.65625 235.304688 75.832031 233.851562 75.832031 L 212.410156 75.832031 C 198.261719 82.757812 185.171875 93.011719 174.078125 105.925781 L 196.828125 105.925781 C 218.578125 85.976562 246.167969 76.757812 272.570312 83.601562 C 295.292969 89.488281 313.714844 106.191406 324.445312 130.636719 C 335.078125 154.863281 336.882812 183.847656 329.515625 212.238281 C 316.164062 263.710938 275.933594 299.261719 234.835938 299.261719 C 228.953125 299.261719 223.058594 298.535156 217.214844 297.019531 C 195.371094 291.359375 177.519531 275.675781 166.636719 252.75 L 148.917969 252.75 C 149.671875 254.582031 150.46875 256.394531 151.308594 258.183594 Z M 27.023438 323.535156 L 190.273438 323.535156 C 191.726562 323.535156 192.90625 322.355469 192.90625 320.902344 C 192.90625 319.449219 191.726562 318.273438 190.273438 318.273438 L 27.023438 318.273438 C 25.570312 318.273438 24.394531 319.449219 24.394531 320.902344 C 24.394531 322.355469 25.570312 323.535156 27.023438 323.535156 Z M 220.429688 154.566406 L 280.277344 185.742188 C 281.101562 186.167969 281.640625 187 281.6875 187.929688 C 281.742188 188.859375 281.300781 189.742188 280.527344 190.261719 L 229.925781 224.15625 C 229.480469 224.453125 228.96875 224.597656 228.460938 224.597656 C 227.738281 224.597656 227.019531 224.300781 226.503906 223.726562 C 225.628906 222.75 225.605469 221.28125 226.445312 220.277344 L 251.902344 189.882812 L 217.453125 158.851562 C 216.46875 157.964844 216.296875 156.484375 217.054688 155.394531 C 217.808594 154.308594 219.261719 153.953125 220.429688 154.566406 Z M 236.339844 168.785156 L 257.308594 187.675781 C 258.359375 188.621094 258.472656 190.234375 257.566406 191.320312 L 242.324219 209.519531 L 273.914062 188.359375 Z M 236.339844 168.785156 " clip-rule="nonzero"/></clipPath></defs><g clip-path="url(#f6aba76973)"><g clip-path="url(#ea34f9521f)"><path fill="#f47a1f" d="M 24.394531 57.546875 L 24.394531 326.554688 L 359.644531 326.554688 L 359.644531 57.546875 Z M 24.394531 57.546875 " fill-opacity="1" fill-rule="nonzero"/></g></g></svg>