<svg xmlns="http://www.w3.org/2000/svg" xmlns:xlink="http://www.w3.org/1999/xlink" width="512" zoomAndPan="magnify" viewBox="0 0 384 383.999986" height="512" preserveAspectRatio="xMidYMid meet" version="1.0"><defs><clipPath id="5ce5abdd03"><path d="M 26 53 L 358.992188 53 L 358.992188 332 L 26 332 Z M 26 53 " clip-rule="nonzero"/></clipPath></defs><g clip-path="url(#5ce5abdd03)"><path fill="#f47a1f" d="M 328.285156 89.242188 L 329.65625 89.242188 C 332.136719 89.242188 334.164062 87.234375 334.164062 84.757812 C 334.164062 82.277344 332.136719 80.269531 329.65625 80.269531 L 328.285156 80.269531 C 325.804688 80.269531 323.777344 82.277344 323.777344 84.757812 C 323.777344 87.234375 325.804688 89.242188 328.285156 89.242188 Z M 145.554688 112.882812 C 148.605469 115.011719 152.3125 116.097656 156 116.097656 C 158.664062 116.097656 161.308594 115.527344 163.664062 114.359375 C 168.539062 111.921875 171.449219 107.207031 171.589844 101.453125 C 171.898438 90.554688 163.910156 84.367188 155.878906 83.894531 C 148.277344 83.445312 140.125 88.300781 139.183594 98.398438 C 138.507812 104.300781 140.820312 109.585938 145.554688 112.882812 Z M 148.136719 99.402344 C 148.136719 99.363281 148.136719 99.320312 148.15625 99.28125 C 148.585938 94.527344 151.824219 92.847656 154.875 92.847656 C 155.039062 92.847656 155.203125 92.847656 155.367188 92.867188 C 159.074219 93.09375 162.742188 95.757812 162.597656 101.207031 C 162.535156 103.707031 161.554688 105.386719 159.628906 106.347656 C 157.027344 107.660156 153.277344 107.3125 150.757812 105.550781 C 148.707031 104.117188 147.828125 102.046875 148.136719 99.402344 Z M 327.671875 118.863281 L 330.804688 118.863281 C 333.285156 118.863281 335.3125 116.855469 335.3125 114.378906 C 335.3125 111.898438 333.28125 109.890625 330.804688 109.890625 L 327.671875 109.890625 C 325.191406 109.890625 323.164062 111.898438 323.164062 114.378906 C 323.164062 116.855469 325.171875 118.863281 327.671875 118.863281 Z M 328.121094 103.890625 L 330.148438 103.890625 C 332.628906 103.890625 334.65625 101.882812 334.65625 99.402344 C 334.65625 96.925781 332.628906 94.917969 330.148438 94.917969 L 328.121094 94.917969 C 325.640625 94.917969 323.613281 96.925781 323.613281 99.402344 C 323.613281 101.882812 325.621094 103.890625 328.121094 103.890625 Z M 246.464844 179.664062 C 243.964844 177.25 240.6875 175.917969 237.207031 175.917969 C 237.1875 175.917969 237.144531 175.917969 237.125 175.917969 C 233.558594 175.9375 230.21875 177.351562 227.699219 179.890625 C 222.558594 185.113281 222.601562 193.574219 227.886719 198.777344 L 242.675781 212.953125 L 228.316406 227.808594 C 223.132812 232.988281 223.132812 241.449219 228.316406 246.632812 C 230.835938 249.152344 234.195312 250.546875 237.757812 250.546875 C 241.324219 250.546875 244.683594 249.152344 247.222656 246.613281 C 247.898438 245.914062 263.898438 229.652344 269.226562 223.875 C 276.539062 215.925781 276.539062 207.503906 269.183594 200.152344 C 263.265625 194.230469 248.003906 180.996094 246.464844 179.664062 Z M 262.566406 217.808594 C 257.34375 223.484375 240.933594 240.160156 240.792969 240.304688 C 239.171875 241.941406 236.324219 241.941406 234.707031 240.304688 C 233.007812 238.601562 233.007812 235.816406 234.746094 234.074219 L 252.285156 215.945312 C 253.101562 215.085938 253.574219 213.9375 253.554688 212.75 C 253.53125 211.5625 253.042969 210.433594 252.179688 209.59375 L 234.195312 192.367188 C 232.472656 190.667969 232.472656 187.902344 234.152344 186.179688 C 234.972656 185.359375 236.039062 184.910156 237.1875 184.890625 C 237.1875 184.890625 237.207031 184.890625 237.207031 184.890625 C 238.351562 184.890625 239.417969 185.339844 240.238281 186.140625 C 240.300781 186.199219 240.382812 186.28125 240.464844 186.34375 C 240.628906 186.488281 256.914062 200.601562 262.792969 206.480469 C 266.707031 210.414062 266.644531 213.386719 262.566406 217.808594 Z M 78.320312 83.324219 C 70.578125 82.769531 61.851562 87.910156 60.867188 98.398438 C 60.191406 104.277344 62.464844 109.542969 67.15625 112.863281 C 70.167969 114.992188 73.894531 116.097656 77.582031 116.097656 C 80.183594 116.097656 82.765625 115.546875 85.058594 114.441406 C 90.019531 112.042969 93.007812 107.332031 93.273438 101.535156 C 93.828125 89.753906 85.898438 83.835938 78.320312 83.324219 Z M 81.105469 106.367188 C 78.503906 107.640625 74.816406 107.289062 72.359375 105.550781 C 70.351562 104.136719 69.492188 102.066406 69.820312 99.402344 C 69.820312 99.363281 69.820312 99.320312 69.839844 99.28125 C 70.269531 94.40625 73.855469 92.273438 77.195312 92.273438 C 77.378906 92.273438 77.542969 92.273438 77.726562 92.296875 C 81.085938 92.519531 84.570312 94.957031 84.28125 101.125 C 84.160156 103.644531 83.09375 105.40625 81.105469 106.367188 Z M 200.496094 168.132812 C 193.222656 166.84375 186.257812 171.675781 184.96875 178.949219 L 174.664062 242.945312 C 173.394531 250.15625 178.25 257.058594 185.519531 258.332031 C 186.320312 258.472656 187.097656 258.535156 187.898438 258.535156 C 190.601562 258.535156 193.246094 257.714844 195.519531 256.136719 C 198.449219 254.109375 200.414062 251.058594 201.050781 247.492188 L 211.355469 183.496094 C 211.96875 179.992188 211.191406 176.46875 209.121094 173.5625 C 207.09375 170.691406 204.019531 168.746094 200.496094 168.132812 Z M 202.484375 182.042969 L 192.179688 246.039062 C 191.972656 247.164062 191.339844 248.148438 190.398438 248.804688 C 189.433594 249.460938 188.265625 249.726562 187.121094 249.519531 C 184.742188 249.113281 183.144531 246.859375 183.574219 244.460938 L 193.878906 180.464844 C 194.25 178.375 196.09375 176.921875 198.160156 176.921875 C 198.40625 176.921875 198.671875 176.941406 198.9375 176.980469 C 200.085938 177.1875 201.109375 177.820312 201.765625 178.765625 C 202.441406 179.707031 202.6875 180.832031 202.484375 182.042969 Z M 356.757812 83.570312 C 355.898438 66.402344 347.109375 57.203125 330.597656 56.261719 C 256.441406 52 115.460938 52.695312 56.320312 56.261719 C 44.765625 56.9375 29.300781 60.625 28.296875 84.511719 C 25.160156 158.832031 25.714844 253.433594 29.566406 299.875 C 30.734375 313.867188 44.804688 328.78125 58 329.988281 C 73.382812 331.382812 119.945312 331.914062 170.484375 331.914062 C 235.527344 331.914062 307.144531 331.035156 327.261719 330.007812 C 339.921875 329.351562 355.796875 316.078125 357.292969 299.9375 C 358.359375 288.320312 358.644531 121.488281 356.757812 83.570312 Z M 41.796875 85.085938 C 42.226562 74.863281 44.457031 70.457031 57.140625 69.699219 C 87.867188 67.855469 140.800781 66.769531 194.863281 66.769531 C 244.253906 66.769531 294.605469 67.671875 329.800781 69.699219 C 339.347656 70.253906 342.726562 73.917969 343.238281 84.246094 C 343.648438 92.601562 343.957031 107.535156 344.160156 125.746094 C 294.277344 126.464844 98.375 127.386719 40.464844 126.34375 C 40.8125 112.1875 41.242188 98.316406 41.796875 85.085938 Z M 326.5625 316.550781 C 291.023438 318.375 94.03125 319.746094 59.226562 316.570312 C 54.1875 316.121094 47.816406 310.34375 44.785156 304.359375 C 47.082031 305.199219 49.703125 305.691406 52.714844 305.878906 C 72.5625 307.042969 116.894531 307.496094 165.117188 307.496094 C 230.34375 307.496094 302.71875 306.675781 331.296875 305.652344 C 335.351562 305.507812 339.570312 304.257812 343.238281 301.636719 C 340.761719 310.160156 331.519531 316.304688 326.5625 316.550781 Z M 344.242188 281.152344 C 343.238281 290.800781 338.488281 296.433594 330.988281 296.699219 C 281.394531 298.460938 99.789062 299.648438 53.246094 296.925781 C 48.105469 296.617188 44.375 295.796875 42.367188 289.695312 C 39.910156 252.449219 39.171875 192.511719 40.277344 135.292969 C 59.042969 135.621094 92.269531 135.765625 130.355469 135.765625 C 209.898438 135.765625 310.460938 135.191406 344.261719 134.699219 C 344.734375 183.25 344.632812 249.601562 344.242188 281.152344 Z M 117.183594 83.691406 C 109.375 83.179688 101 88.054688 100.035156 98.398438 C 99.359375 104.277344 101.632812 109.542969 106.324219 112.863281 C 109.355469 114.992188 113.0625 116.097656 116.773438 116.097656 C 119.375 116.097656 121.953125 115.546875 124.25 114.441406 C 129.207031 112.042969 132.199219 107.332031 132.464844 101.535156 C 132.933594 90.535156 125.128906 84.222656 117.183594 83.691406 Z M 120.273438 106.367188 C 117.671875 107.640625 113.984375 107.289062 111.527344 105.550781 C 109.519531 104.136719 108.660156 102.066406 108.988281 99.402344 C 108.988281 99.363281 108.988281 99.320312 109.007812 99.28125 C 109.457031 94.34375 112.941406 92.644531 116.035156 92.644531 C 116.21875 92.644531 116.402344 92.644531 116.585938 92.664062 C 119.925781 92.890625 123.714844 95.246094 123.449219 101.144531 C 123.308594 103.644531 122.242188 105.40625 120.273438 106.367188 Z M 142.5625 213.527344 L 156.921875 198.675781 C 162.105469 193.472656 162.105469 185.03125 156.921875 179.851562 C 154.402344 177.332031 151.042969 175.9375 147.480469 175.9375 C 143.914062 175.9375 140.554688 177.332031 138.015625 179.871094 C 137.339844 180.566406 121.339844 196.832031 116.015625 202.609375 C 108.699219 210.558594 108.699219 218.976562 116.035156 226.332031 C 121.953125 232.253906 137.195312 245.484375 138.734375 246.816406 C 141.230469 249.234375 144.507812 250.566406 147.992188 250.566406 C 148.011719 250.566406 148.054688 250.566406 148.074219 250.566406 C 151.636719 250.546875 154.976562 249.132812 157.496094 246.59375 C 162.640625 241.367188 162.578125 232.90625 157.3125 227.703125 Z M 151.085938 240.28125 C 150.265625 241.101562 149.199219 241.550781 148.054688 241.574219 C 148.054688 241.574219 148.03125 241.574219 148.03125 241.574219 C 146.886719 241.574219 145.820312 241.121094 145 240.324219 C 144.941406 240.261719 144.859375 240.179688 144.777344 240.117188 C 144.613281 239.976562 128.324219 225.859375 122.445312 219.980469 C 118.535156 216.046875 118.574219 213.097656 122.671875 208.652344 C 127.894531 202.976562 144.304688 186.304688 144.449219 186.160156 C 146.085938 184.519531 148.914062 184.519531 150.53125 186.160156 C 152.230469 187.859375 152.230469 190.644531 150.492188 192.386719 L 132.957031 210.515625 C 132.136719 211.378906 131.664062 212.523438 131.683594 213.710938 C 131.707031 214.902344 132.199219 216.027344 133.058594 216.867188 L 151.042969 234.097656 C 152.746094 235.796875 152.765625 238.582031 151.085938 240.28125 Z M 151.085938 240.28125 " fill-opacity="1" fill-rule="nonzero"/></g></svg>