<?xml version="1.0" encoding="UTF-8" standalone="no"?>
<!DOCTYPE svg PUBLIC "-//W3C//DTD SVG 1.1//EN" "http://www.w3.org/Graphics/SVG/1.1/DTD/svg11.dtd">
<svg width="100%" height="100%" viewBox="0 0 1107 326" version="1.1" xmlns="http://www.w3.org/2000/svg" xmlns:xlink="http://www.w3.org/1999/xlink" xml:space="preserve" xmlns:serif="http://www.serif.com/" style="fill-rule:evenodd;clip-rule:evenodd;stroke-linejoin:round;stroke-miterlimit:2;">
    <g transform="matrix(1,0,0,1,-449.994,-828.802)">
        <g id="Layer-1" serif:id="Layer 1">
            <g>
                <g transform="matrix(0,-1,-1,0,1394.13,828.802)">
                    <path d="M-162.66,-162.66C-252.494,-162.66 -325.32,-89.835 -325.32,0C-325.32,89.834 -252.494,162.66 -162.66,162.66C-72.826,162.66 0,89.834 0,0C0,-89.835 -72.826,-162.66 -162.66,-162.66" style="fill:rgb(43,48,129);fill-rule:nonzero;"/>
                </g>
                <g transform="matrix(1,0,0,1,513.193,1006.41)">
                    <path d="M0,-29.903C-16.743,-31.9 -31.093,-35.293 -31.093,-47.454C-31.093,-57.823 -21.722,-65.989 -2.188,-65.989C12.969,-65.989 26.128,-58.411 30.916,-50.436L51.845,-61.201C41.285,-82.747 18.755,-88.93 -2.982,-88.93C-28.699,-88.725 -57.015,-76.96 -57.015,-48.247C-57.015,-16.949 -30.696,-9.37 -2.188,-5.978C16.361,-3.98 30.109,1.395 30.109,14.555C30.109,29.712 14.555,35.499 -1.983,35.499C-18.932,35.499 -35.087,28.713 -41.271,13.365L-63.199,24.733C-52.83,50.245 -30.902,59.027 -2.379,59.027C28.713,59.027 56.237,45.662 56.237,14.555C56.237,-18.741 29.11,-26.319 0,-29.903" style="fill:rgb(43,48,129);fill-rule:nonzero;"/>
                </g>
                <g transform="matrix(1,0,0,1,644.981,1021.97)">
                    <path d="M0,-59.821C-11.162,-59.821 -21.928,-56.428 -30.696,-45.06L-30.696,-99.696L-55.033,-99.696L-55.033,39.875L-30.696,39.875L-30.696,-10.37C-30.696,-25.115 -20.738,-37.276 -6.374,-37.276C6.58,-37.276 15.95,-29.712 15.95,-11.765L15.95,39.875L40.287,39.875L40.287,-11.956C40.287,-40.874 27.92,-59.821 0,-59.821" style="fill:rgb(43,48,129);fill-rule:nonzero;"/>
                </g>
                <g transform="matrix(1,0,0,1,752.255,983.896)">
                    <path d="M0,57.808C-17.757,57.808 -26.731,43.855 -26.731,28.904C-26.731,14.143 -17.551,-0.206 0,-0.206C16.347,-0.206 26.716,14.143 26.716,28.904C26.716,43.855 17.742,57.808 0,57.808M-0.206,-22.339C-31.504,-22.339 -51.052,0.793 -51.052,28.904C-51.052,57.206 -31.915,80.147 0,80.147C31.9,80.147 51.243,57.206 51.243,28.904C51.243,0.793 31.093,-22.339 -0.206,-22.339" style="fill:rgb(43,48,129);fill-rule:nonzero;"/>
                </g>
                <g transform="matrix(1,0,0,1,872.278,1061.84)">
                    <path d="M0,-100.886C-9.973,-100.886 -20.151,-99.094 -27.715,-86.933L-29.521,-98.286L-52.051,-98.286L-52.051,0L-27.715,0L-27.715,-51.831C-27.715,-69.984 -15.95,-76.755 -3.202,-76.755C4.773,-76.755 9.37,-74.567 14.349,-70.381L25.321,-91.516C19.93,-96.891 10.163,-100.886 0,-100.886" style="fill:rgb(43,48,129);fill-rule:nonzero;"/>
                </g>
                <g transform="matrix(1,0,0,1,971.563,961.542)">
                    <path d="M0,76.579C-3.598,78.371 -7.975,79.56 -11.764,79.56C-19.343,79.56 -24.527,74.978 -24.527,65.608L-24.527,23.147L2.791,23.147L2.791,2.204L-24.336,2.204L-24.336,-25.717L-48.658,-23.117L-48.658,2.204L-67.003,2.204L-67.003,23.147L-48.658,23.147L-48.658,65.608C-48.658,90.135 -34.691,102.296 -13.365,101.503C-5.992,101.297 -0.206,100.108 6.771,97.317L0,76.579Z" style="fill:rgb(43,48,129);fill-rule:nonzero;"/>
                </g>
                <g transform="matrix(1,0,0,1,0,-15.686)">
                    <rect x="992.492" y="938.16" width="24.116" height="139.366" style="fill:rgb(43,48,129);"/>
                </g>
                <g transform="matrix(1,0,0,1,1035.75,1042.91)">
                    <path d="M0,-107.083C0,-88.137 28.713,-88.137 28.713,-107.083C28.713,-126.015 0,-126.015 0,-107.083M2.203,18.932L26.525,18.932L26.525,-79.765L2.203,-79.765L2.203,18.932Z" style="fill:rgb(43,48,129);fill-rule:nonzero;"/>
                </g>
                <g transform="matrix(1,0,0,1,1124.47,1024.55)">
                    <path d="M0,-23.118C-12.558,-23.911 -18.344,-27.509 -18.344,-33.884C-18.344,-40.067 -11.956,-43.651 -0.397,-43.651C8.974,-43.651 16.949,-41.462 23.94,-34.882L37.496,-50.832C26.128,-60.805 14.555,-63.801 -0.793,-63.801C-18.741,-63.801 -42.27,-55.826 -42.27,-33.09C-42.27,-10.751 -20.136,-3.981 -1.586,-2.585C12.366,-1.792 17.948,1.013 17.948,7.784C17.948,14.966 9.385,19.754 0.205,19.548C-10.766,19.357 -26.716,13.57 -33.692,5.786L-45.648,23.132C-31.298,38.098 -15.745,40.683 -0.191,40.683C27.92,40.683 42.078,25.731 42.078,8.386C42.078,-17.742 18.55,-21.928 0,-23.118" style="fill:rgb(43,48,129);fill-rule:nonzero;"/>
                </g>
                <g transform="matrix(1,0,0,1,1234.37,959.266)">
                    <path d="M0,81.131C-1.836,81.586 -3.686,81.836 -5.42,81.836C-12.998,81.836 -18.182,77.254 -18.182,67.883L-18.182,25.423L-7.167,25.423C-6.888,18.314 -6.169,11.323 -5.008,4.479L-17.992,4.479L-17.992,-23.441L-42.313,-20.841L-42.313,4.479L-60.658,4.479L-60.658,25.423L-42.313,25.423L-42.313,67.883C-42.313,92.411 -28.361,104.572 -7.02,103.779C-1.601,103.632 2.952,102.941 7.755,101.487C4.744,94.922 2.144,88.122 0,81.131" style="fill:rgb(43,48,129);fill-rule:nonzero;"/>
                </g>
            </g>
            <g transform="matrix(1,0,0,1,1381.27,1062.05)">
                <path d="M0,-139.571L-43.665,-79.559L-87.329,-139.571L-117.643,-139.571L-117.643,0L-91.324,0L-91.324,-101.487L-46.852,-40.683L-41.667,-40.683L3.789,-101.296L3.789,0L30.109,0L30.109,-139.571L0,-139.571Z" style="fill:white;fill-rule:nonzero;"/>
            </g>
            <g transform="matrix(1,0,0,1,1455.43,1023.77)">
                <path d="M0,-22.544C3.598,-35.307 14.364,-41.681 27.524,-41.681C41.476,-41.681 51.449,-35.307 53.05,-22.544L0,-22.544ZM26.731,-63.213C-5.17,-63.213 -25.511,-41.681 -25.511,-11.778C-25.511,19.726 -5.375,40.669 28.523,40.669C43.474,40.669 60.423,35.485 70.792,24.719L55.238,9.356C49.657,15.143 37.893,18.536 28.919,18.536C11.764,18.536 1.204,9.768 -0.396,-2.408L76.373,-2.408C80.162,-42.871 59.63,-63.213 26.731,-63.213" style="fill:white;fill-rule:nonzero;"/>
            </g>
        </g>
    </g>
</svg>
